<svg width="51" height="63" viewBox="0 0 51 63" fill="none" xmlns="http://www.w3.org/2000/svg">
<g clip-path="url(#clip0_9_3)">
<path d="M26.81 33.7042C27.2534 36.3194 25.7447 39.2909 24.2418 41.4865C23.0326 43.1303 21.7198 45.0788 19.8656 45.9294C18.7255 46.6421 18 47.1249 16.8311 47.1249C16.094 47.579 15.2706 47.556 14.309 47.6077C11.5163 47.3319 8.78695 46.3605 6.67946 44.4983C4.99232 42.9119 3.87524 40.8025 2.7524 38.7966C1.49136 36.8596 0.570058 32.3535 0.414587 29.9567C0 27.9105 0.190019 25.8586 0 23.778C0.0403071 22.8814 0.259117 21.7663 0.184261 20.7662C0.28215 19.2258 0.570058 18.4729 0.627639 16.7888C0.944338 15.6508 1.00192 14.2599 1.54319 13.0701C3.15547 7.73054 6.08637 3.02897 11.1651 0.683925C19.4914 -1.97149 27.5528 3.3106 26.3551 12.5126C26.2054 15.0531 23.2975 18.1453 21.8349 14.1679C20.5566 10.6676 20.8791 6.99484 18.8868 3.85088C18.1209 2.72434 16.739 1.93691 15.4376 2.78756C10.2726 5.81083 9.85221 11.4205 9.29367 16.9728C8.75816 24.4907 7.31286 33.3306 12.4779 39.5438C15.0345 42.82 19.6468 43.4407 21.8407 39.4518C22.7735 37.7908 23.4127 35.2158 24.2476 33.7387C24.881 32.6524 25.6641 32.0661 26.6372 33.434L26.8042 33.7042H26.81Z" fill="#57535F"/>
<path d="M35.9309 37.6126C30.2995 37.4574 32.81 44.9926 33.4377 48.3779C33.8177 53.6658 38.8676 62.931 44.5855 57.6317C46.5375 55.3154 45.6622 51.4472 47.5164 49.1941C48.3283 48.0273 50.1593 47.7515 50.7236 49.2746C51.2188 50.8264 50.8215 51.8323 50.3666 53.0508C50.0615 54.0911 49.5951 55.3556 48.8695 56.3499C46.1977 60.6377 41.7985 63.8161 36.8522 62.8103C32.5048 62.9137 29.4012 59.2582 27.4319 56.0855C23.8561 49.7344 23.7812 42.3774 24.0749 35.2273C24.3628 32.3937 24.881 29.6866 25.6929 26.8587C26.8331 23.8412 28.1171 21.1226 30.4952 18.858C31.6411 18.0418 32.3033 17.036 33.7198 16.7141C35.0269 15.9612 36.7486 15.5991 38.5682 15.5589C40.1344 15.4439 41.3148 16.2313 42.7486 16.3176C48.0116 18.8638 50.4818 25.2666 50.8734 30.7671C50.9828 31.7672 50.9367 33.503 50.9597 34.6181C51.167 35.4975 50.7006 36.2964 50.1593 37.0148C49.7102 37.6816 49.4511 37.3597 48.8522 37.5551C48.1555 37.7046 46.9002 37.6241 46.1344 37.6356C42.9559 37.6011 39.1094 37.4747 36.1152 37.6126L35.9309 37.6011V37.6126ZM37.6123 20.1167C37.3187 19.9788 36.7083 20.5421 36.5586 20.5593C36.2073 20.9961 36.0231 20.9444 35.764 21.295C35.6891 21.3238 35.6891 21.2893 35.5912 21.4215C35.3321 22.0537 35.1363 21.864 35.1651 22.0135C34.8945 22.456 34.6238 23.1573 34.405 23.4734C34.1747 23.8872 33.9444 24.0999 34.0826 24.5309C33.7544 24.6172 33.8868 25.3126 33.7256 25.4276C33.6104 25.5023 33.5298 25.9908 33.5643 26.2322C33.4607 26.5599 33.3225 27.6289 33.1843 28.1347C33.1267 28.5715 33.3455 29.0486 33.0807 29.2095C33.2764 29.4969 32.9309 29.8705 32.9828 30.2096C33.0461 30.4568 33.0288 30.9108 33.0346 31.158C32.8849 31.9512 33.3628 32.5317 34.048 33.0202C35.0154 33.072 36.5298 33.3363 37.549 33.2156C38.4242 33.1409 39 33.5777 39.5586 33.2904C39.8177 33.1869 39.6507 33.0892 39.835 33.2501C40.3935 33.0145 41.1651 33.0777 41.8043 32.6409C41.8446 32.4857 42.0173 32.2098 42.1152 32.1351C42.3167 32.1581 42.0576 31.9397 42.167 31.8707C42.3974 31.5431 42.3052 31.2614 42.3455 30.8246C42.7256 29.9797 42.3743 29.1348 42.4837 28.2957C42.2073 27.422 42.5125 27.2208 42.3225 26.5254C42.2707 26.169 42.0288 25.7782 42.1325 25.3126C42.1152 25.2551 42.0058 24.9103 41.9712 24.7896C41.9712 24.6631 41.7582 24.5597 41.787 24.393C41.7582 24.0309 41.4473 22.9101 41.3551 22.6112C41.4357 22.6112 41.3609 22.5538 41.286 22.5193C41.0672 22.4158 41.263 22.0709 41.0787 21.9962C40.6584 21.6169 40.9117 21.2605 40.238 20.9272C40.0538 20.8237 39.3743 20.1627 39.2419 20.3467C39.0979 20.065 38.5797 20.2489 38.5279 20.1685C38.4645 20.0765 37.9175 19.9558 37.6987 20.1282H37.6238L37.6123 20.1167Z" fill="#57535F"/>
</g>
<defs>
<clipPath id="clip0_9_3">
<rect width="51" height="63" fill="white"/>
</clipPath>
</defs>
</svg>
